# xmcd CD database file
#
# Track frame offsets:
#	299
#	11139
#	31482
#	46790
#	62966
#	77547
#	97478
#	126710
#	134383
#	157688
#	171812
#	188178
#	204513
#	226242
#
# Disc length: 3140 seconds
#
# Revision: 0
# Processed by: cddbd v1.5.2PL0 Copyright (c) Steve Scherf et al.
# Submitted via: CDex 1.70beta2
#
DISCID=c00c410e
DTITLE=Ross Neilsen - Early Grave
DYEAR=2007
DGENRE=Blues
TTITLE0=Early Grave
TTITLE1=Walk In The Sun
TTITLE2=Don't Need Love
TTITLE3=Yonderwall
TTITLE4=Call Me Gone
TTITLE5=Let You Down
TTITLE6=How I Could Change
TTITLE7=Early Grave (Eulogy)
TTITLE8=Anyway I Can
TTITLE9=Texas
TTITLE10=Back For More
TTITLE11=Jelly Bean
TTITLE12=Spirit In The Sky
TTITLE13=Early Grave (Committal)
EXTD=YEAR: 2007
EXTT0=
EXTT1=
EXTT2=
EXTT3=
EXTT4=
EXTT5=
EXTT6=
EXTT7=
EXTT8=
EXTT9=
EXTT10=
EXTT11=
EXTT12=
EXTT13=
PLAYORDER=
